<?xml version="1.0" encoding="UTF-8"?>
<svg version="1.1" xmlns="http://www.w3.org/2000/svg" width="192" height="191">
<path d="M0 0 C63.36 0 126.72 0 192 0 C192 63.03 192 126.06 192 191 C128.64 191 65.28 191 0 191 C0 127.97 0 64.94 0 0 Z " fill="#000000" transform="translate(0,0)"/>
<path d="M0 0 C3.9658247 1.79597199 5.64284153 3.87312411 8.1875 7.4375 C8.9703697 8.51988667 9.75559118 9.60057563 10.54296875 10.6796875 C11.1450415 11.50484863 11.1450415 11.50484863 11.75927734 12.34667969 C14.44318858 15.92311552 17.36315506 19.30956353 20.25 22.72265625 C22 25 22 25 23 28 C25.95613611 28.99975574 25.95613611 28.99975574 29.4375 29.625 C35.8812616 30.9406308 35.8812616 30.9406308 38 32 C37.67 36.95 37.34 41.9 37 47 C30.07 46.505 30.07 46.505 23 46 C23.01160156 44.13988281 23.02320313 42.27976563 23.03515625 40.36328125 C22.371188 31.73169404 18.27764013 26.0030893 13.4375 19.1875 C12.62059934 17.99581472 11.80612714 16.80246095 10.99414062 15.60742188 C9.02365052 12.71855264 7.02150022 9.85348798 5 7 C7.42243047 15.94829908 10.80652571 24.50880915 14.1875 33.125 C14.75230857 34.57277805 15.31676437 36.02069378 15.88085938 37.46875 C17.24984804 40.98076571 18.62358415 44.49088884 20 48 C23.96 48.33 27.92 48.66 32 49 C32.23733045 54.57726547 31.57846031 59.63093061 30 65 C27.94077598 67.05922402 23.78291876 66.41427579 20.9375 66.5625 C20.17888672 66.60568359 19.42027344 66.64886719 18.63867188 66.69335938 C16.75934562 66.79973633 14.87969756 66.90039934 13 67 C13.05800781 65.78828125 13.11601563 64.5765625 13.17578125 63.328125 C13.6006028 50.40103981 11.68103687 39.34243733 8 27 C7.45499456 25.11088886 6.91073777 23.22156159 6.3671875 21.33203125 C4.64395725 13.08783167 4.64395725 13.08783167 1 6 C0.91452408 6.86142105 0.82904816 7.7228421 0.74098206 8.61036682 C-0.06659544 16.74636573 -0.87561873 24.88221932 -1.68624783 33.01791477 C-2.10290353 37.20009733 -2.51900892 41.38233309 -2.93383789 45.56469727 C-3.33452805 49.60430264 -3.73668828 53.64375926 -4.13984871 57.68311882 C-4.29305963 59.22075173 -4.44574951 60.75843665 -4.59789848 62.296175 C-4.81183291 64.45743891 -5.02765462 66.61850692 -5.24389648 68.77954102 C-5.36603012 70.00753922 -5.48816376 71.23553741 -5.61399841 72.50074768 C-6.00152274 76.01380418 -6.480861 79.50417944 -7 83 C-25.82004556 88.37129841 -25.82004556 88.37129841 -35 90 C-35.11214844 90.97582031 -35.22429687 91.95164062 -35.33984375 92.95703125 C-35.97163219 97.34878501 -37.23760675 101.46196569 -38.5625 105.6875 C-39.09918138 107.4422426 -39.63423834 109.19748257 -40.16796875 110.953125 C-40.45849121 111.90767578 -40.74901367 112.86222656 -41.04833984 113.84570312 C-42.86426538 119.86462513 -44.62555597 125.89897048 -46.375 131.9375 C-46.73279541 133.15203857 -47.09059082 134.36657715 -47.45922852 135.61791992 C-47.78979248 136.76365479 -48.12035645 137.90938965 -48.4609375 139.08984375 C-48.90638916 140.61919556 -48.90638916 140.61919556 -49.36083984 142.17944336 C-50.11717097 144.96458913 -50.11717097 144.96458913 -49.90869141 147.74438477 C-49.93882324 148.48873779 -49.96895508 149.23309082 -50 150 C-51.485 150.99 -51.485 150.99 -53 152 C-54.45127189 148.63626925 -55.37483907 145.5474079 -55.9296875 141.9296875 C-56.08284424 140.96208496 -56.23600098 139.99448242 -56.39379883 138.99755859 C-56.55259521 137.96711426 -56.7113916 136.93666992 -56.875 135.875 C-58.03006172 128.66805805 -59.23664867 121.50225974 -60.8125 114.375 C-62.95597057 104.62935382 -64.71296788 94.81570846 -66.5 85 C-68.40743124 74.53345417 -70.32047229 64.07972349 -72.57324219 53.6809082 C-74.04606204 46.86552221 -75.41022579 40.03022049 -76.75 33.1875 C-76.97316895 32.07020508 -77.19633789 30.95291016 -77.42626953 29.80175781 C-77.63106934 28.74698242 -77.83586914 27.69220703 -78.046875 26.60546875 C-78.32289551 25.20010864 -78.32289551 25.20010864 -78.60449219 23.76635742 C-79.02717675 20.8099137 -79.06705352 17.98250775 -79 15 C-72.95263735 15.59923764 -67.0941189 16.482107 -61.15234375 17.7421875 C-60.3373793 17.91122589 -59.52241486 18.08026428 -58.68275452 18.25442505 C-56.10017223 18.7907175 -53.51878792 19.33251504 -50.9375 19.875 C-47.5512324 20.58290578 -44.16445598 21.28833463 -40.77734375 21.9921875 C-39.54641495 22.24835846 -39.54641495 22.24835846 -38.2906189 22.50970459 C-30.54643853 24.11218741 -22.7793179 25.57916339 -15 27 C-14.599021 25.92649292 -14.599021 25.92649292 -14.18994141 24.83129883 C-12.97897341 21.94997017 -11.56134368 19.38225264 -9.9609375 16.69921875 C-9.38085938 15.72275391 -8.80078125 14.74628906 -8.203125 13.74023438 C-7.59984375 12.73283203 -6.9965625 11.72542969 -6.375 10.6875 C-5.76398438 9.66076172 -5.15296875 8.63402344 -4.5234375 7.57617188 C-3.01880606 5.04886125 -1.5109006 2.52356601 0 0 Z " fill="#030302" transform="translate(114,25)"/>
<path d="M0 0 C1.28547548 3.85642645 0.44843216 4.86838666 -1.203125 8.515625 C-1.68910156 9.60230469 -2.17507812 10.68898438 -2.67578125 11.80859375 C-3.19527344 12.94425781 -3.71476562 14.07992187 -4.25 15.25 C-5.73647744 18.55370561 -7.22266502 21.85753959 -8.70776367 25.16186523 C-9.45295109 26.79851813 -10.21132465 28.42957882 -11.00512695 30.04321289 C-13.21959172 34.6700648 -13.53644551 38.90091169 -13.6875 43.9375 C-13.72166016 44.71673828 -13.75582031 45.49597656 -13.79101562 46.29882812 C-13.8726071 48.19874393 -13.93799885 50.09934403 -14 52 C-18.31848119 52.43543817 -22.63771173 52.86224188 -26.95776367 53.28173828 C-28.42120246 53.4249896 -29.88442938 53.57042555 -31.34741211 53.71826172 C-40.59715779 54.65116917 -49.68859474 55.21797589 -59 55 C-58.92483154 55.60956543 -58.84966309 56.21913086 -58.7722168 56.84716797 C-56.90338447 72.15096952 -55.3588695 87.45629799 -54.09057617 102.81982422 C-53.4047874 111.01561697 -52.51733607 119.14709613 -51.38696289 127.29443359 C-50.97415426 131.24749949 -50.93606205 135.02926124 -51 139 C-53.9516207 136.0483793 -53.8334766 132.54426664 -54.375 128.5625 C-55.30725024 122.21762385 -56.36375301 115.94873968 -57.75 109.6875 C-59.91207748 99.8369538 -61.69424318 89.9204909 -63.5 80 C-65.40733396 69.53343918 -67.32047325 59.07971907 -69.57324219 48.6809082 C-71.04606204 41.86552221 -72.41022579 35.03022049 -73.75 28.1875 C-73.97316895 27.07020508 -74.19633789 25.95291016 -74.42626953 24.80175781 C-74.63106934 23.74698242 -74.83586914 22.69220703 -75.046875 21.60546875 C-75.32289551 20.20010864 -75.32289551 20.20010864 -75.60449219 18.76635742 C-76.02717675 15.8099137 -76.06705352 12.98250775 -76 10 C-69.95263735 10.59923764 -64.0941189 11.482107 -58.15234375 12.7421875 C-57.3373793 12.91122589 -56.52241486 13.08026428 -55.68275452 13.25442505 C-53.10017223 13.7907175 -50.51878792 14.33251504 -47.9375 14.875 C-44.5512324 15.58290578 -41.16445598 16.28833463 -37.77734375 16.9921875 C-36.54641495 17.24835846 -36.54641495 17.24835846 -35.2906189 17.50970459 C-27.54643853 19.11218741 -19.7793179 20.57916339 -12 22 C-11.71914551 21.26177002 -11.43829102 20.52354004 -11.14892578 19.76293945 C-10.11976322 17.28800688 -8.985727 15.09141329 -7.6171875 12.79296875 C-7.17246094 12.04208984 -6.72773437 11.29121094 -6.26953125 10.51757812 C-5.80933594 9.74865234 -5.34914063 8.97972656 -4.875 8.1875 C-4.17310547 7.00510742 -4.17310547 7.00510742 -3.45703125 5.79882812 C-2.30784603 3.86397546 -1.15542997 1.93112772 0 0 Z " fill="#716355" transform="translate(111,30)"/>
<path d="M0 0 C0.33 0 0.66 0 1 0 C0.44370344 16.67178005 -1.25660888 33.17327259 -3.0625 49.75 C-3.34815661 52.40482568 -3.63202902 55.05983847 -3.91601562 57.71484375 C-4.60478906 64.14387397 -5.29983217 70.57220125 -6 77 C-8.87177332 77.80826311 -11.74424978 78.61386376 -14.6171875 79.41796875 C-15.42438232 79.645448 -16.23157715 79.87292725 -17.06323242 80.1072998 C-22.67383525 81.67467462 -28.2607563 82.98174708 -34 84 C-34.1134375 84.9796875 -34.226875 85.959375 -34.34375 86.96875 C-34.96636614 91.29247321 -36.19600107 95.33933364 -37.5 99.5 C-38.03538296 101.24432317 -38.56911661 102.98915306 -39.1015625 104.734375 C-39.39836914 105.70697266 -39.69517578 106.67957031 -40.00097656 107.68164062 C-42.0103485 114.35597675 -43.93738815 121.05455123 -45.875 127.75 C-46.28447453 129.16342035 -46.69397912 130.57683199 -47.10351562 131.99023438 C-48.06994796 135.32655198 -49.03529975 138.66318109 -50 142 C-51.01640342 138.82559594 -50.94546626 136.72944061 -50.19555664 133.49780273 C-49.99527359 132.61265488 -49.79499054 131.72750702 -49.58863831 130.8155365 C-49.25278969 129.38897484 -49.25278969 129.38897484 -48.91015625 127.93359375 C-48.45106786 125.90041411 -47.99208697 123.86721019 -47.53320312 121.83398438 C-46.80155235 118.6429498 -46.06605424 115.45284661 -45.32739258 112.26342773 C-44.6158362 109.17649696 -43.91875048 106.08654213 -43.22265625 102.99609375 C-43.0007814 102.05922226 -42.77890656 101.12235077 -42.55030823 100.15708923 C-40.61687078 91.5349852 -40.66897359 83.27194548 -41.5 74.5 C-42.06072842 68.58120006 -42 63.05145297 -42 57 C-32.1 56.34 -22.2 55.68 -12 55 C-11.46890625 52.45410156 -10.9378125 49.90820312 -10.390625 47.28515625 C-9.86150994 44.75615968 -9.33166626 42.22731676 -8.80175781 39.69848633 C-8.44032325 37.97175669 -8.07961877 36.24487403 -7.71972656 34.51782227 C-5.3126257 22.96978948 -2.76146474 11.46862694 0 0 Z " fill="#716455" transform="translate(113,31)"/>
<path d="M0 0 C-0.33 5.28 -0.66 10.56 -1 16 C-8.5625 18.5 -8.5625 18.5 -10.90063477 19.22851562 C-16.97890388 21.37879918 -20.14978226 24.95375718 -24 30 C-24.53939209 30.68610352 -25.07878418 31.37220703 -25.63452148 32.07910156 C-27.25689888 34.1623118 -28.85020441 36.26496698 -30.4375 38.375 C-35.20191354 44.65995642 -40.02344109 50.88078708 -45 57 C-45 53.36699285 -44.063488 52.16918137 -42.11328125 49.140625 C-41.50419922 48.18929687 -40.89511719 47.23796875 -40.26757812 46.2578125 C-39.62240234 45.26523438 -38.97722656 44.27265625 -38.3125 43.25 C-37.68666016 42.27289063 -37.06082031 41.29578125 -36.41601562 40.2890625 C-33.78018407 36.19317346 -31.19054362 32.20988855 -28.09375 28.44921875 C-25.0207567 24.21886433 -25.22031299 19.62663797 -25.1875 14.5625 C-25.16236328 13.64017578 -25.13722656 12.71785156 -25.11132812 11.76757812 C-25.05287504 9.51128904 -25.016292 7.25692068 -25 5 C-21.39704301 4.16137685 -17.79244935 3.33001323 -14.1875 2.5 C-13.16333984 2.26152344 -12.13917969 2.02304688 -11.08398438 1.77734375 C-10.10107422 1.55175781 -9.11816406 1.32617188 -8.10546875 1.09375 C-6.74651489 0.77954102 -6.74651489 0.77954102 -5.36010742 0.45898438 C-3 0 -3 0 0 0 Z " fill="#716355" transform="translate(113,112)"/>
<path d="M0 0 C-0.14129287 2.41700987 -0.28786487 4.83350429 -0.4375 7.25 C-0.47681641 7.93191406 -0.51613281 8.61382812 -0.55664062 9.31640625 C-1.01491216 16.57824755 -1.01491216 16.57824755 -2 19 C-4.00952148 20.09667969 -4.00952148 20.09667969 -6.62109375 20.921875 C-7.55630859 21.22480469 -8.49152344 21.52773437 -9.45507812 21.83984375 C-10.43927734 22.14019531 -11.42347656 22.44054687 -12.4375 22.75 C-13.41783203 23.06582031 -14.39816406 23.38164063 -15.40820312 23.70703125 C-22.61963948 26 -22.61963948 26 -25 26 C-25.02887236 22.18751574 -25.04675492 18.3750593 -25.0625 14.5625 C-25.07087891 13.47388672 -25.07925781 12.38527344 -25.08789062 11.26367188 C-25.09111328 10.22919922 -25.09433594 9.19472656 -25.09765625 8.12890625 C-25.10289307 7.17056885 -25.10812988 6.21223145 -25.11352539 5.22485352 C-25 3 -25 3 -24 2 C-21.47725104 1.5929133 -18.97270927 1.24445359 -16.4375 0.9375 C-15.74591797 0.84662109 -15.05433594 0.75574219 -14.34179688 0.66210938 C-9.52725828 0.06533991 -4.85079085 -0.08184686 0 0 Z " fill="#716355" transform="translate(142,94)"/>
<path d="M0 0 C3.25716416 3.71014726 4.67385346 7.92283226 6.35546875 12.484375 C6.66196854 13.29996887 6.96846832 14.11556274 7.28425598 14.95587158 C8.25815138 17.55166167 9.22292984 20.1507322 10.1875 22.75 C10.84770805 24.51454724 11.50850868 26.27887289 12.16992188 28.04296875 C13.78682572 32.35944157 15.3955636 36.67887834 17 41 C20.96 41.33 24.92 41.66 29 42 C29.23733045 47.57726547 28.57846031 52.63093061 27 58 C24.94077598 60.05922402 20.78291876 59.41427579 17.9375 59.5625 C16.79958008 59.62727539 16.79958008 59.62727539 15.63867188 59.69335938 C13.75934562 59.79973633 11.87969756 59.90039934 10 60 C10.05800781 58.78828125 10.11601563 57.5765625 10.17578125 56.328125 C10.59860739 43.41826732 8.68713384 32.3283898 5 20 C4.5178703 18.35687609 4.0360951 16.71364812 3.5546875 15.0703125 C2.89014762 12.80620529 2.22066205 10.54492549 1.5246582 8.2902832 C0.64216167 5.40769795 0 3.03524815 0 0 Z " fill="#706254" transform="translate(117,32)"/>
<path d="M0 0 C4.27744295 4.10055621 8.02110131 8.52462836 11.75 13.125 C12.63365234 14.19814453 12.63365234 14.19814453 13.53515625 15.29296875 C14.09589844 15.98261719 14.65664062 16.67226563 15.234375 17.3828125 C15.74194336 18.00559082 16.24951172 18.62836914 16.77246094 19.27001953 C18 21 18 21 19 24 C21.95613611 24.99975574 21.95613611 24.99975574 25.4375 25.625 C31.8812616 26.9406308 31.8812616 26.9406308 34 28 C33.67 32.95 33.34 37.9 33 43 C26.07 42.505 26.07 42.505 19 42 C19.02191406 40.14761719 19.04382813 38.29523438 19.06640625 36.38671875 C18.38757041 27.5594583 13.96412418 21.71689153 8.9375 14.8125 C7.65413499 12.99875125 6.37841793 11.17990355 5.10585022 9.35856628 C3.9621778 7.72974696 2.79981139 6.11410086 1.63647461 4.49926758 C0 2 0 2 0 0 Z " fill="#6F6153" transform="translate(118,29)"/>
<path d="M0 0 C0.29877248 5.03981991 -0.78393596 9.21346996 -2.375 13.9375 C-2.82112499 15.30051559 -3.2664442 16.66379518 -3.7109375 18.02734375 C-3.92717773 18.68460449 -4.14341797 19.34186523 -4.36621094 20.01904297 C-5.31771692 22.99304897 -6.16088434 25.99251538 -7 29 C-8.18449366 25.49732006 -7.81569354 22.98537507 -7.07421875 19.39453125 C-6.85443359 18.32912109 -6.63464844 17.26371094 -6.40820312 16.16601562 C-6.17037109 15.05935547 -5.93253906 13.95269531 -5.6875 12.8125 C-5.46126953 11.69423828 -5.23503906 10.57597656 -5.00195312 9.42382812 C-4.77830078 8.36228516 -4.55464844 7.30074219 -4.32421875 6.20703125 C-4.11885498 5.2322583 -3.91349121 4.25748535 -3.7019043 3.25317383 C-3.47027588 2.50962646 -3.23864746 1.7660791 -3 1 C-1 0 -1 0 0 0 Z " fill="#594E42" transform="translate(70,144)"/>
<path d="M0 0 C0.33 0.66 0.66 1.32 1 2 C-0.95182717 4.65068998 -2.91253256 7.29468057 -4.875 9.9375 C-5.43058594 10.69224609 -5.98617187 11.44699219 -6.55859375 12.22460938 C-7.36103516 13.30258789 -7.36103516 13.30258789 -8.1796875 14.40234375 C-8.67194824 15.06741943 -9.16420898 15.73249512 -9.67138672 16.41772461 C-11 18 -11 18 -13 19 C-11.52626552 14.8689619 -9.49326336 11.45638177 -7.0625 7.8125 C-6.37285156 6.76707031 -5.68320313 5.72164062 -4.97265625 4.64453125 C-3 2 -3 2 0 0 Z " fill="#64584B" transform="translate(80,150)"/>
<path d="M0 0 C2.50276394 3.03496087 3.91612312 5.93195283 5.25 9.625 C5.60578125 10.58664063 5.9615625 11.54828125 6.328125 12.5390625 C7 15 7 15 6 17 C5.34 17.33 4.68 17.66 4 18 C3.32873871 15.5636811 2.66283646 13.12611117 2 10.6875 C1.71382813 9.65206055 1.71382813 9.65206055 1.421875 8.59570312 C0.62283816 5.64212051 0 3.07440781 0 0 Z " fill="#5B4F44" transform="translate(117,32)"/>
<path d="M0 0 C0.33 0 0.66 0 1 0 C0.67 6.6 0.34 13.2 0 20 C-0.99 19.01 -1.98 18.02 -3 17 C-2.890625 14.00390625 -2.890625 14.00390625 -2.25 10.5625 C-2.04890625 9.42941406 -1.8478125 8.29632813 -1.640625 7.12890625 C-1.14965593 4.73094147 -0.62754788 2.3649258 0 0 Z " fill="#605448" transform="translate(113,31)"/>
<path d="M0 0 C1.32 0.66 2.64 1.32 4 2 C4 3.65 4 5.3 4 7 C1.03 6.505 1.03 6.505 -2 6 C-1.125 1.125 -1.125 1.125 0 0 Z " fill="#27231D" transform="translate(114,25)"/>
<path d="M0 0 C3.63559661 3.43361902 6.36113346 6.7973607 9 11 C8.01 11 7.02 11 6 11 C4.39453125 9.1015625 4.39453125 9.1015625 2.8125 6.625 C2.01779297 5.40683594 2.01779297 5.40683594 1.20703125 4.1640625 C0 2 0 2 0 0 Z " fill="#564C41" transform="translate(118,29)"/>
<path d="M0 0 C0.66 1.32 1.32 2.64 2 4 C2.99 4 3.98 4 5 4 C4.34 5.32 3.68 6.64 3 8 C2.34 7.67 1.68 7.34 1 7 C0.59270772 4.67843403 0.25561323 2.3431213 0 0 Z " fill="#201C18" transform="translate(59,169)"/>
</svg>
